<svg width="16" height="9" viewBox="0 0 16 9" fill="none" xmlns="http://www.w3.org/2000/svg">
<path d="M7.50156 8.78745L0.190145 1.15003C0.0680893 1.0226 0 0.853293 0 0.677233C0 0.501173 0.0680893 0.331869 0.190145 0.204435L0.198407 0.196212C0.257577 0.13422 0.3288 0.0848579 0.407743 0.0511265C0.486685 0.017395 0.571697 0 0.657608 0C0.743518 0 0.82853 0.017395 0.907472 0.0511265C0.986415 0.0848579 1.05764 0.13422 1.11681 0.196212L8.00138 7.38824L14.8832 0.196212C14.9424 0.13422 15.0136 0.0848579 15.0925 0.0511265C15.1715 0.017395 15.2565 0 15.3424 0C15.4283 0 15.5133 0.017395 15.5923 0.0511265C15.6712 0.0848579 15.7424 0.13422 15.8016 0.196212L15.8099 0.204435C15.9319 0.331869 16 0.501173 16 0.677233C16 0.853293 15.9319 1.0226 15.8099 1.15003L8.49844 8.78745C8.43414 8.85461 8.35681 8.90809 8.27113 8.94462C8.18545 8.98116 8.09321 9 8 9C7.90679 9 7.81455 8.98116 7.72887 8.94462C7.64319 8.90809 7.56585 8.85461 7.50156 8.78745Z" fill="black"/>
</svg>
