<svg width="14" height="16" viewBox="0 0 14 16" fill="none" xmlns="http://www.w3.org/2000/svg">
<path d="M6.83333 8H12.6667M12.6667 8L10.1667 10.5M12.6667 8L10.1667 5.5M12.6667 3V2.16667C12.6667 1.72464 12.4911 1.30072 12.1785 0.988155C11.866 0.675595 11.442 0.5 11 0.5H2.66667C2.22464 0.5 1.80072 0.675595 1.48816 0.988155C1.17559 1.30072 1 1.72464 1 2.16667V13.8333C1 14.2754 1.17559 14.6993 1.48816 15.0118C1.80072 15.3244 2.22464 15.5 2.66667 15.5H11C11.442 15.5 11.866 15.3244 12.1785 15.0118C12.4911 14.6993 12.6667 14.2754 12.6667 13.8333V13" stroke="black" stroke-linecap="round" stroke-linejoin="round"/>
</svg>
