<svg width="15" height="16" viewBox="0 0 15 16" fill="none" xmlns="http://www.w3.org/2000/svg">
<path d="M15 8C15 8.12697 14.9496 8.24873 14.8598 8.33851C14.77 8.42829 14.6482 8.47872 14.5213 8.47872H7.97872V15.0213C7.97872 15.1482 7.92829 15.27 7.83851 15.3598C7.74873 15.4496 7.62697 15.5 7.5 15.5C7.37303 15.5 7.25127 15.4496 7.16149 15.3598C7.07171 15.27 7.02128 15.1482 7.02128 15.0213V8.47872H0.478723C0.351758 8.47872 0.229993 8.42829 0.140215 8.33851C0.0504367 8.24873 0 8.12697 0 8C0 7.87303 0.0504367 7.75127 0.140215 7.66149C0.229993 7.57171 0.351758 7.52128 0.478723 7.52128H7.02128V0.978723C7.02128 0.851758 7.07171 0.729993 7.16149 0.640215C7.25127 0.550437 7.37303 0.5 7.5 0.5C7.62697 0.5 7.74873 0.550437 7.83851 0.640215C7.92829 0.729993 7.97872 0.851758 7.97872 0.978723V7.52128H14.5213C14.6482 7.52128 14.77 7.57171 14.8598 7.66149C14.9496 7.75127 15 7.87303 15 8Z" fill="white"/>
</svg>
